# xmcd
#
# Track frame offsets: 
#        150
#        16506
#        34845
#        55850
#        77915
#        98121
#        116195
#        135429
#        162435
#        185707
#        212799
#        236737
#        265671
#        281247
#
# Disc length: 3954 seconds
#
# Revision: 0
# Processed by: cddbd v1.5.2PL0 Copyright (c) Steve Scherf et al.
# Submitted via: ExactAudioCopyFreeDBPlugin 1.0
#
DISCID=c50f700e
DTITLE=Xavier Naidoo - Alles Kann Besser Werden
DYEAR=1900
DGENRE=Folk
TTITLE0=In Too Deep
TTITLE1=Was Hab Ich Falsch Gemacht
TTITLE2=Ich Warte Bis Du Kommst
TTITLE3=Gib Dich Nicht Auf
TTITLE4=Europa
TTITLE5=Halte Durch
TTITLE6=Befreit
TTITLE7=Ich Kann Nicht Weinen
TTITLE8=Für Dich Öffnen Sie Die Tore
TTITLE9=So Calm
TTITLE10=Holt Die Seeleute Heim
TTITLE11=Raus Aus Dem Reichstag
TTITLE12=Verschieden
TTITLE13=Goldwaagen - Goldwagen
EXTD=
EXTT0=
EXTT1=
EXTT2=
EXTT3=
EXTT4=
EXTT5=
EXTT6=
EXTT7=
EXTT8=
EXTT9=
EXTT10=
EXTT11=
EXTT12=
EXTT13=
PLAYORDER=
